<svg xmlns="http://www.w3.org/2000/svg" xmlns:xlink="http://www.w3.org/1999/xlink" version="1.1" x="0px" y="0px"
    viewBox="0 0 32 32" style="enable-background:new 0 0 32 32;" xml:space="preserve" preserveAspectRatio="none"
    width="100%" height="100%" class="" fill="#FFFFFF">
    <g>
        <g>
            <g>
                <path
                    d="M16,10.1c-3.2,0-5.9,2.6-5.9,5.9s2.6,5.9,5.9,5.9s5.9-2.6,5.9-5.9S19.2,10.1,16,10.1z M13.7,13.6c-0.5,0-0.9-0.4-0.9-0.9     c0-0.5,0.4-0.9,0.9-0.9s0.9,0.4,0.9,0.9C14.6,13.2,14.2,13.6,13.7,13.6z">
                </path>
            </g>
            <g>
                <path
                    d="M26.4,4.2H5.6C4.7,4.2,4,4.9,4,5.7v20.5c0,0.8,0.7,1.5,1.5,1.5h20.8c0.8,0,1.5-0.7,1.5-1.5V5.7C28,4.9,27.3,4.2,26.4,4.2     z M16,23.9c-4.3,0-7.9-3.5-7.9-7.9s3.5-7.9,7.9-7.9s7.9,3.5,7.9,7.9S20.3,23.9,16,23.9z M24.5,7.5c-0.5,0-0.9-0.4-0.9-0.9     s0.4-0.9,0.9-0.9s0.9,0.4,0.9,0.9S25.1,7.5,24.5,7.5z">
                </path>
            </g>
        </g>
    </g>
</svg>
