<svg width="26" height="26" viewBox="0 0 26 26" fill="none" xmlns="http://www.w3.org/2000/svg">
<path d="M24.847 18.8143L21.3645 15.3318C20.1207 14.088 18.0064 14.5855 17.5088 16.2024C17.1357 17.3218 15.892 17.9437 14.7726 17.6949C12.2851 17.073 8.92695 13.8392 8.30508 11.2274C7.93195 10.1079 8.6782 8.86419 9.79758 8.49111C11.4145 7.99361 11.912 5.87923 10.6682 4.63548L7.1857 1.15297C6.1907 0.282343 4.69819 0.282343 3.82757 1.15297L1.46444 3.5161C-0.898694 6.00361 1.71319 12.5955 7.55883 18.4411C13.4045 24.2868 19.9964 27.0231 22.4839 24.5355L24.847 22.1724C25.7177 21.1774 25.7177 19.6849 24.847 18.8143Z" fill="white"/>
</svg>
