<svg xmlns="http://www.w3.org/2000/svg" xmlns:xlink="http://www.w3.org/1999/xlink" version="1.1" x="0px" y="0px"
    viewBox="0 0 100 100" enable-background="new 0 0 100 100" xml:space="preserve" preserveAspectRatio="none"
    width="100%" height="100%" class="" fill="#FFFFFF">
    <g>
        <rect x="-192" width="185" height="99"></rect>
        <rect y="-36" width="100" height="30"></rect><text transform="matrix(1 0 0 1 66 -19.5)"
            enable-background="new    ">
            <tspan x="0" y="0" font-family="'MyriadPro-Regular'" font-size="2.4">http:
            </tspan>
            <tspan x="4.783" y="0" font-family="'HelveticaLTStd-Fractions'" font-size="2.4">//</tspan>
            <tspan x="5.584" y="0" font-family="'MyriadPro-Regular'" font-size="2.4">
                thenounproject.com</tspan>
        </text><text transform="matrix(1 0 0 1 7.166 -24.5)" enable-background="new    ">
            <tspan x="0" y="0" font-family="'MyriadPro-Regular'" font-size="6.1578">The
            </tspan>
            <tspan x="9.563" y="0" font-family="'HelveticaLTStd-Fractions'" font-size="6.1578"></tspan>
            <tspan x="11.472" y="0" font-family="'MyriadPro-Regular'" font-size="6.1578">Noun
            </tspan>
            <tspan x="25.715" y="0" font-family="'HelveticaLTStd-Fractions'" font-size="6.1578"></tspan>
            <tspan x="27.624" y="0" font-family="'MyriadPro-Regular'" font-size="6.1578">Project
            </tspan>
        </text><text transform="matrix(1 0 0 1 8.2861 -19.7002)" enable-background="new    ">
            <tspan x="0" y="0" font-family="'MyriadPro-Regular'" font-size="4">Icon</tspan>
            <tspan x="7.164" y="0" font-family="'HelveticaLTStd-Fractions'" font-size="4"></tspan>
            <tspan x="8.404" y="0" font-family="'MyriadPro-Regular'" font-size="4">Template
            </tspan>
        </text><text transform="matrix(1 0 0 1 -178.5 10.5)" font-family="'MyriadPro-Regular'"
            font-size="6.1578">Reminders</text>
        <line stroke="#FFFFFF" stroke-miterlimit="10" x1="8" y1="-14.5" x2="18" y2="-14.5">
        </line>
        <line stroke="#FFFFFF" stroke-miterlimit="10" x1="-179" y1="16.5" x2="-162" y2="16.5">
        </line>
        <g>
            <g>
                <g>
                    <rect x="-170.802" y="31.318" width="8.721" height="8.642">
                    </rect>
                    <path
                        d="M-164.455,42.312h4.747v-4.703h-4.747V42.312z M-159.266,42.749h-5.63V37.17h5.63V42.749      L-159.266,42.749z M-166.221,44.062h8.279v-8.203h-8.279V44.062L-166.221,44.062z M-157.5,44.5h-9.163v-9.079h9.163V44.5      L-157.5,44.5z">
                    </path>
                    <polygon points="-166.149,44.133 -166.292,43.991 -158.013,35.787 -157.871,35.929     ">
                    </polygon>
                </g>
            </g>
        </g>
        <rect x="-179" y="58" width="35" height="32.5"></rect><text transform="matrix(1 0 0 1 -179 60.1289)"
            font-family="'MyriadPro-Regular'" font-size="3">Strokes</text><text transform="matrix(1 0 0 1 -179 65.1289)"
            enable-background="new    ">
            <tspan x="0" y="0" font-family="'MyriadPro-Regular'" font-size="2.4">Try</tspan>
            <tspan x="3.108" y="0" font-family="'HelveticaLTStd-Fractions'" font-size="2.4"></tspan>
            <tspan x="3.852" y="0" font-family="'MyriadPro-Regular'" font-size="2.4">to</tspan>
            <tspan x="5.964" y="0" font-family="'HelveticaLTStd-Fractions'" font-size="2.4"></tspan>
            <tspan x="6.708" y="0" font-family="'MyriadPro-Regular'" font-size="2.4">keep</tspan>
            <tspan x="11.604" y="0" font-family="'HelveticaLTStd-Fractions'" font-size="2.4"></tspan>
            <tspan x="12.348" y="0" font-family="'MyriadPro-Regular'" font-size="2.4">strokes
            </tspan>
            <tspan x="19.473" y="0" font-family="'HelveticaLTStd-Fractions'" font-size="2.4"></tspan>
            <tspan x="20.217" y="0" font-family="'MyriadPro-Regular'" font-size="2.4">at</tspan>
            <tspan x="22.168" y="0" font-family="'HelveticaLTStd-Fractions'" font-size="2.4"> 4</tspan>
            <tspan x="24.247" y="0" font-family="'MyriadPro-Regular'" font-size="2.4">px</tspan>
        </text><text transform="matrix(1 0 0 1 -179 70.1289)" enable-background="new    ">
            <tspan x="0" y="0" font-family="'MyriadPro-Regular'" font-size="2.4">Minimum
            </tspan>
            <tspan x="9.71" y="0" font-family="'HelveticaLTStd-Fractions'" font-size="2.4"></tspan>
            <tspan x="10.454" y="0" font-family="'MyriadPro-Regular'" font-size="2.4">stroke
            </tspan>
            <tspan x="16.629" y="0" font-family="'HelveticaLTStd-Fractions'" font-size="2.4"></tspan>
            <tspan x="17.373" y="0" font-family="'MyriadPro-Regular'" font-size="2.4">weight
            </tspan>
            <tspan x="24.372" y="0" font-family="'HelveticaLTStd-Fractions'" font-size="2.4"></tspan>
            <tspan x="25.115" y="0" font-family="'MyriadPro-Regular'" font-size="2.4">is</tspan>
            <tspan x="26.627" y="0" font-family="'HelveticaLTStd-Fractions'" font-size="2.4"> 2</tspan>
            <tspan x="28.706" y="0" font-family="'MyriadPro-Regular'" font-size="2.4">px</tspan>
        </text><text transform="matrix(1 0 0 1 -179 74.6289)" enable-background="new    ">
            <tspan x="0" y="0" font-family="'MyriadPro-Regular'" font-size="2.4">For</tspan>
            <tspan x="3.271" y="0" font-family="'HelveticaLTStd-Fractions'" font-size="2.4"></tspan>
            <tspan x="4.015" y="0" font-family="'MyriadPro-Regular'" font-size="2.4">thicker
            </tspan>
            <tspan x="10.891" y="0" font-family="'HelveticaLTStd-Fractions'" font-size="2.4"></tspan>
            <tspan x="11.635" y="0" font-family="'MyriadPro-Regular'" font-size="2.4">strokes
            </tspan>
            <tspan x="18.76" y="0" font-family="'HelveticaLTStd-Fractions'" font-size="2.4"></tspan>
            <tspan x="19.504" y="0" font-family="'MyriadPro-Regular'" font-size="2.4">use</tspan>
            <tspan x="22.979" y="0" font-family="'HelveticaLTStd-Fractions'" font-size="2.4"></tspan>
            <tspan x="23.724" y="0" font-family="'MyriadPro-Regular'" font-size="2.4">even</tspan>
            <tspan x="28.614" y="0" font-family="'HelveticaLTStd-Fractions'" font-size="2.4"></tspan>
        </text><text transform="matrix(1 0 0 1 -179 77.6289)" enable-background="new    ">
            <tspan x="0" y="0" font-family="'MyriadPro-Regular'" font-size="2.4">numbers:
            </tspan>
            <tspan x="9.456" y="0" font-family="'HelveticaLTStd-Fractions'" font-size="2.4"> 6</tspan>
            <tspan x="11.534" y="0" font-family="'MyriadPro-Regular'" font-size="2.4">px,</tspan>
            <tspan x="14.508" y="0" font-family="'HelveticaLTStd-Fractions'" font-size="2.4"> 8</tspan>
            <tspan x="16.586" y="0" font-family="'MyriadPro-Regular'" font-size="2.4">px</tspan>
            <tspan x="19.063" y="0" font-family="'HelveticaLTStd-Fractions'" font-size="2.4"></tspan>
            <tspan x="19.807" y="0" font-family="'MyriadPro-Regular'" font-size="2.4">etc.</tspan>
        </text><text transform="matrix(1 0 0 1 -179 82.1289)" enable-background="new    ">
            <tspan x="0" y="0" font-family="'MyriadPro-Regular'" font-size="2.4">Remember
            </tspan>
            <tspan x="11.052" y="0" font-family="'HelveticaLTStd-Fractions'" font-size="2.4"></tspan>
            <tspan x="11.796" y="0" font-family="'MyriadPro-Regular'" font-size="2.4">to</tspan>
            <tspan x="13.908" y="0" font-family="'HelveticaLTStd-Fractions'" font-size="2.4"></tspan>
            <tspan x="14.652" y="0" font-family="'MyriadPro-Regular'" font-size="2.4">expand
            </tspan>
            <tspan x="22.173" y="0" font-family="'HelveticaLTStd-Fractions'" font-size="2.4"></tspan>
            <tspan x="22.917" y="0" font-family="'MyriadPro-Regular'" font-size="2.4">strokes
            </tspan>
            <tspan x="30.042" y="0" font-family="'HelveticaLTStd-Fractions'" font-size="2.4"></tspan>
        </text><text transform="matrix(1 0 0 1 -179 85.1289)" enable-background="new    ">
            <tspan x="0" y="0" font-family="'MyriadPro-Regular'" font-size="2.4">before
            </tspan>
            <tspan x="6.573" y="0" font-family="'HelveticaLTStd-Fractions'" font-size="2.4"></tspan>
            <tspan x="7.317" y="0" font-family="'MyriadPro-Regular'" font-size="2.4">saving
            </tspan>
            <tspan x="13.814" y="0" font-family="'HelveticaLTStd-Fractions'" font-size="2.4"></tspan>
            <tspan x="14.558" y="0" font-family="'MyriadPro-Regular'" font-size="2.4">as</tspan>
            <tspan x="16.665" y="0" font-family="'HelveticaLTStd-Fractions'" font-size="2.4"></tspan>
            <tspan x="17.409" y="0" font-family="'MyriadPro-Regular'" font-size="2.4">an</tspan>
            <tspan x="19.898" y="0" font-family="'HelveticaLTStd-Fractions'" font-size="2.4"></tspan>
            <tspan x="20.642" y="0" font-family="'MyriadPro-Regular'" font-size="2.4">SVG</tspan>
            <tspan x="24.715" y="0" font-family="'HelveticaLTStd-Fractions'" font-size="2.4"></tspan>
        </text>
        <rect x="-136.5" y="58" width="35" height="32.5"></rect><text transform="matrix(1 0 0 1 -136.5 60.1289)"
            font-family="'MyriadPro-Regular'" font-size="3">Size</text><text transform="matrix(1 0 0 1 -136.5 65.1289)"
            enable-background="new    ">
            <tspan x="0" y="0" font-family="'MyriadPro-Regular'" font-size="2.4">Cannot
            </tspan>
            <tspan x="7.325" y="0" font-family="'HelveticaLTStd-Fractions'" font-size="2.4"></tspan>
            <tspan x="8.069" y="0" font-family="'MyriadPro-Regular'" font-size="2.4">be</tspan>
            <tspan x="10.637" y="0" font-family="'HelveticaLTStd-Fractions'" font-size="2.4"></tspan>
            <tspan x="11.38" y="0" font-family="'MyriadPro-Regular'" font-size="2.4">wider
            </tspan>
            <tspan x="17.049" y="0" font-family="'HelveticaLTStd-Fractions'" font-size="2.4"></tspan>
            <tspan x="17.793" y="0" font-family="'MyriadPro-Regular'" font-size="2.4">or</tspan>
            <tspan x="19.896" y="0" font-family="'HelveticaLTStd-Fractions'" font-size="2.4"></tspan>
            <tspan x="20.64" y="0" font-family="'MyriadPro-Regular'" font-size="2.4">taller
            </tspan>
            <tspan x="25.71" y="0" font-family="'HelveticaLTStd-Fractions'" font-size="2.4"></tspan>
            <tspan x="26.455" y="0" font-family="'MyriadPro-Regular'" font-size="2.4">than</tspan>
            <tspan x="31.07" y="0" font-family="'HelveticaLTStd-Fractions'" font-size="2.4"></tspan>
        </text><text transform="matrix(1 0 0 1 -136.5 68.6289)" enable-background="new    ">
            <tspan x="0" y="0" font-family="'HelveticaLTStd-Fractions'" font-size="2.4">100</tspan>
            <tspan x="4.003" y="0" font-family="'MyriadPro-Regular'" font-size="2.4">px</tspan>
            <tspan x="6.48" y="0" font-family="'HelveticaLTStd-Fractions'" font-size="2.4"></tspan>
            <tspan x="7.224" y="0" font-family="'MyriadPro-Regular'" font-size="2.4">(artboard
            </tspan>
            <tspan x="16.62" y="0" font-family="'HelveticaLTStd-Fractions'" font-size="2.4"></tspan>
            <tspan x="17.364" y="0" font-family="'MyriadPro-Regular'" font-size="2.4">size)
            </tspan>
        </text><text transform="matrix(1 0 0 1 -136.5 73.6289)" enable-background="new    ">
            <tspan x="0" y="0" font-family="'MyriadPro-Regular'" font-size="2.4">Scale
            </tspan>
            <tspan x="5.184" y="0" font-family="'HelveticaLTStd-Fractions'" font-size="2.4"></tspan>
            <tspan x="5.928" y="0" font-family="'MyriadPro-Regular'" font-size="2.4">your</tspan>
            <tspan x="10.483" y="0" font-family="'HelveticaLTStd-Fractions'" font-size="2.4"></tspan>
            <tspan x="11.227" y="0" font-family="'MyriadPro-Regular'" font-size="2.4">icon</tspan>
            <tspan x="15.513" y="0" font-family="'HelveticaLTStd-Fractions'" font-size="2.4"></tspan>
            <tspan x="16.257" y="0" font-family="'MyriadPro-Regular'" font-size="2.4">to</tspan>
            <tspan x="18.369" y="0" font-family="'HelveticaLTStd-Fractions'" font-size="2.4"></tspan>
            <tspan x="19.113" y="0" font-family="'MyriadPro-Regular'" font-size="2.4">fill</tspan>
            <tspan x="21.501" y="0" font-family="'HelveticaLTStd-Fractions'" font-size="2.4"></tspan>
            <tspan x="22.245" y="0" font-family="'MyriadPro-Regular'" font-size="2.4">as</tspan>
            <tspan x="24.352" y="0" font-family="'HelveticaLTStd-Fractions'" font-size="2.4"></tspan>
            <tspan x="25.096" y="0" font-family="'MyriadPro-Regular'" font-size="2.4">much</tspan>
            <tspan x="30.827" y="0" font-family="'HelveticaLTStd-Fractions'" font-size="2.4"></tspan>
            <tspan x="31.571" y="0" font-family="'MyriadPro-Regular'" font-size="2.4">of</tspan>
            <tspan x="33.59" y="0" font-family="'HelveticaLTStd-Fractions'" font-size="2.4"></tspan>
        </text><text transform="matrix(1 0 0 1 -136.5 76.6289)" enable-background="new    ">
            <tspan x="0" y="0" font-family="'MyriadPro-Regular'" font-size="2.4">the</tspan>
            <tspan x="3.329" y="0" font-family="'HelveticaLTStd-Fractions'" font-size="2.4"></tspan>
            <tspan x="4.073" y="0" font-family="'MyriadPro-Regular'" font-size="2.4">artboard
            </tspan>
            <tspan x="12.787" y="0" font-family="'HelveticaLTStd-Fractions'" font-size="2.4"></tspan>
            <tspan x="13.531" y="0" font-family="'MyriadPro-Regular'" font-size="2.4">as</tspan>
            <tspan x="15.638" y="0" font-family="'HelveticaLTStd-Fractions'" font-size="2.4"></tspan>
            <tspan x="16.382" y="0" font-family="'MyriadPro-Regular'" font-size="2.4">possible
            </tspan>
        </text>
        <rect x="-94" y="58" width="35" height="32.5"></rect><text transform="matrix(1 0 0 1 -94 60.1289)"
            font-family="'MyriadPro-Regular'" font-size="3">Ungroup</text><text transform="matrix(1 0 0 1 -94 65.1289)"
            enable-background="new    ">
            <tspan x="0" y="0" font-family="'MyriadPro-Regular'" font-size="2.4">If</tspan>
            <tspan x="1.274" y="0" font-family="'HelveticaLTStd-Fractions'" font-size="2.4"></tspan>
            <tspan x="2.019" y="0" font-family="'MyriadPro-Regular'" font-size="2.4">your</tspan>
            <tspan x="6.573" y="0" font-family="'HelveticaLTStd-Fractions'" font-size="2.4"></tspan>
            <tspan x="7.317" y="0" font-family="'MyriadPro-Regular'" font-size="2.4">design
            </tspan>
            <tspan x="14.059" y="0" font-family="'HelveticaLTStd-Fractions'" font-size="2.4"></tspan>
            <tspan x="14.803" y="0" font-family="'MyriadPro-Regular'" font-size="2.4">has</tspan>
            <tspan x="18.242" y="0" font-family="'HelveticaLTStd-Fractions'" font-size="2.4"></tspan>
            <tspan x="18.986" y="0" font-family="'MyriadPro-Regular'" font-size="2.4">more</tspan>
            <tspan x="24.292" y="0" font-family="'HelveticaLTStd-Fractions'" font-size="2.4"></tspan>
            <tspan x="25.036" y="0" font-family="'MyriadPro-Regular'" font-size="2.4">than</tspan>
            <tspan x="29.651" y="0" font-family="'HelveticaLTStd-Fractions'" font-size="2.4"></tspan>
            <tspan x="30.396" y="0" font-family="'MyriadPro-Regular'" font-size="2.4">one</tspan>
            <tspan x="34.247" y="0" font-family="'HelveticaLTStd-Fractions'" font-size="2.4"></tspan>
        </text><text transform="matrix(1 0 0 1 -94 68.1289)" enable-background="new    ">
            <tspan x="0" y="0" font-family="'MyriadPro-Regular'" font-size="2.4">shape,
            </tspan>
            <tspan x="6.504" y="0" font-family="'HelveticaLTStd-Fractions'" font-size="2.4"></tspan>
            <tspan x="7.248" y="0" font-family="'MyriadPro-Regular'" font-size="2.4">make</tspan>
            <tspan x="12.734" y="0" font-family="'HelveticaLTStd-Fractions'" font-size="2.4"></tspan>
            <tspan x="13.478" y="0" font-family="'MyriadPro-Regular'" font-size="2.4">sure</tspan>
            <tspan x="17.738" y="0" font-family="'HelveticaLTStd-Fractions'" font-size="2.4"></tspan>
            <tspan x="18.482" y="0" font-family="'MyriadPro-Regular'" font-size="2.4">to</tspan>
            <tspan x="20.594" y="0" font-family="'HelveticaLTStd-Fractions'" font-size="2.4"></tspan>
            <tspan x="21.338" y="0" font-family="'MyriadPro-Regular'" font-size="2.4">ungroup
            </tspan>
        </text>
        <rect x="-50" y="58" width="35" height="32.5"></rect><text transform="matrix(1 0 0 1 -50 60.1289)"
            enable-background="new    ">
            <tspan x="0" y="0" font-family="'MyriadPro-Regular'" font-size="3">Save</tspan>
            <tspan x="5.871" y="0" font-family="'HelveticaLTStd-Fractions'" font-size="3"></tspan>
            <tspan x="6.801" y="0" font-family="'MyriadPro-Regular'" font-size="3">as</tspan>
        </text><text transform="matrix(1 0 0 1 -50 65.1289)" enable-background="new    ">
            <tspan x="0" y="0" font-family="'MyriadPro-Regular'" font-size="2.4">Save</tspan>
            <tspan x="4.697" y="0" font-family="'HelveticaLTStd-Fractions'" font-size="2.4"></tspan>
            <tspan x="5.44" y="0" font-family="'MyriadPro-Regular'" font-size="2.4">as</tspan>
            <tspan x="7.548" y="0" font-family="'HelveticaLTStd-Fractions'" font-size="2.4"></tspan>
            <tspan x="8.292" y="0" font-family="'MyriadPro-Regular'" font-size="2.4">.SVG</tspan>
            <tspan x="12.861" y="0" font-family="'HelveticaLTStd-Fractions'" font-size="2.4"></tspan>
            <tspan x="13.605" y="0" font-family="'MyriadPro-Regular'" font-size="2.4">and</tspan>
            <tspan x="17.448" y="0" font-family="'HelveticaLTStd-Fractions'" font-size="2.4"></tspan>
            <tspan x="18.191" y="0" font-family="'MyriadPro-Regular'" font-size="2.4">make</tspan>
            <tspan x="23.678" y="0" font-family="'HelveticaLTStd-Fractions'" font-size="2.4"></tspan>
            <tspan x="24.422" y="0" font-family="'MyriadPro-Regular'" font-size="2.4">sure</tspan>
            <tspan x="28.682" y="0" font-family="'HelveticaLTStd-Fractions'" font-size="2.4"></tspan>
            <tspan x="29.426" y="0" font-family="'MyriadPro-Regular'" font-size="2.4">“Use</tspan>
            <tspan x="33.981" y="0" font-family="'HelveticaLTStd-Fractions'" font-size="2.4"></tspan>
        </text><text transform="matrix(1 0 0 1 -50 68.1289)" enable-background="new    ">
            <tspan x="0" y="0" font-family="'MyriadPro-Regular'" font-size="2.4">Artboards”
            </tspan>
            <tspan x="10.826" y="0" font-family="'HelveticaLTStd-Fractions'" font-size="2.4"></tspan>
            <tspan x="11.57" y="0" font-family="'MyriadPro-Regular'" font-size="2.4">is</tspan>
            <tspan x="13.082" y="0" font-family="'HelveticaLTStd-Fractions'" font-size="2.4"></tspan>
            <tspan x="13.826" y="0" font-family="'MyriadPro-Regular'" font-size="2.4">checked
            </tspan>
        </text><text transform="matrix(1.0074 0 0 1 -125.5425 30.5928)" enable-background="new    ">
            <tspan x="0" y="0" font-family="'HelveticaLTStd-Fractions'" font-size="2.5731">100
            </tspan>
            <tspan x="4.292" y="0" font-family="'MyriadPro-Regular'" font-size="2.5731">px
            </tspan>
        </text><text transform="matrix(1.0074 0 0 1 -41 39)" font-family="'MyriadPro-Regular'"
            font-size="5.1462">.SVG</text>
        <rect x="-126.514" y="34.815" width="10.261" height="10.185">
        </rect>
        <rect x="-126.477" y="31.766" width="0.522" height="2.337">
        </rect>
        <rect x="-116.813" y="31.766" width="0.523" height="2.337">
        </rect>
        <rect x="-127" y="32.337" width="11.233" height="0.572">
        </rect>
        <g>
            <rect x="-83.805" y="33.844" width="10.305" height="10.156"></rect>
            <rect x="-76.809" y="28.707" width="3.308" height="3.261"></rect>
        </g>
        <rect x="-178.5" y="22.5" stroke="#FFFFFF" stroke-miterlimit="10" width="30" height="30"></rect>
        <rect x="-136.5" y="22.5" stroke="#FFFFFF" stroke-miterlimit="10" width="30" height="30"></rect>
        <rect x="-93.5" y="22.5" stroke="#FFFFFF" stroke-miterlimit="10" width="30" height="30"></rect>
        <rect x="-49.5" y="22.5" stroke="#FFFFFF" stroke-miterlimit="10" width="30" height="30"></rect>
    </g>
    <g>
        <path
            d="M97.363,92.344L61.734,56.715c4.689-5.793,7.509-13.16,7.509-21.194c0-18.625-15.097-33.723-33.723-33.723   c-18.626,0-33.722,15.098-33.722,33.723c0,18.627,15.097,33.723,33.723,33.723c8.034,0,15.401-2.818,21.194-7.51l35.628,35.629   c1.05,1.048,3.023,0.775,4.411-0.608C98.139,95.365,98.41,93.393,97.363,92.344z M35.521,62.219   c-14.745,0-26.697-11.953-26.697-26.698S20.775,8.824,35.521,8.824c14.743,0,26.697,11.952,26.697,26.697   S50.263,62.219,35.521,62.219z">
        </path>
    </g>
</svg>
